<svg xmlns="http://www.w3.org/2000/svg" width="96" height="96" viewBox="0 0 96 96"><g transform="translate(0 -956.362)"><circle cx="48" cy="1004.362" r="48" fill="#239fdb" fill-rule="evenodd"/><path fill="#fff" fill-rule="evenodd" style="line-height:normal;text-indent:0;text-align:start;text-decoration-line:none;text-decoration-style:solid;text-decoration-color:#000;text-transform:none;block-progression:tb;isolation:auto;mix-blend-mode:normal" d="M 21.966797,973.36258 C 21.431264,973.36258 21,973.82463 21,974.39774 l 0,53.96486 -1.964844,0 c -0.573103,0 -1.035156,0.4313 -1.035156,0.9668 l 0,0.066 c 0,0.5355 0.462053,0.9668 1.035156,0.9668 l 1.964844,0 0,1.9648 c 0,0.5731 0.431264,1.0352 0.966797,1.0352 l 0.06641,0 c 0.535533,4e-4 0.966797,-0.4617 0.966797,-1.0348 l 0,-1.9648 53.964844,0 c 0.573103,0 1.035156,-0.4313 1.035156,-0.9668 l 0,-0.066 c 0,-0.5355 -0.462053,-0.9668 -1.035156,-0.9668 l -53.964844,-4e-4 0,-53.96486 c 0,-0.57311 -0.431264,-1.03516 -0.966797,-1.03516 l -0.06641,0 z m 54.912109,13.9707 a 3.0003,3.0003 0 0 0 -0.298828,0.0293 l -7.580078,0 3.664062,3.66406 -7.251953,9.23046 -4.667968,-3.33397 a 3.0003,3.0003 0 0 0 -4.121094,0.61133 l -8.291016,10.77734 -6.667969,-4.4453 a 3.0003,3.0003 0 0 0 -4.005859,0.623 L 24,1021.5618 l 0,5.8008 3.041016,0 13.583984,-16.9766 6.710938,4.4727 a 3.0003,3.0003 0 0 0 4.041015,-0.666 l 8.236328,-10.7051 4.642578,3.3164 a 3.0003,3.0003 0 0 0 4.103516,-0.5879 l 8.578125,-10.91602 3.0625,3.0625 0,-7.66016 a 3.0003,3.0003 0 0 0 0,-0.75586 l 0,-2.58398 -2.542969,0 a 3.0003,3.0003 0 0 0 -0.578125,-0.0293 z" color="#000" font-family="sans-serif" font-weight="400" overflow="visible" white-space="normal"/></g></svg>