<svg xmlns="http://www.w3.org/2000/svg" xmlns:xlink="http://www.w3.org/1999/xlink" width="64" height="64" viewBox="0 0 64 64"><defs><linearGradient id="a"><stop offset="0" stop-color="#000092"/><stop offset="1" stop-color="#ff00f3"/></linearGradient><linearGradient id="b" x1="2.001" x2="59" y1="32.001" y2="32.001" gradientUnits="userSpaceOnUse" xlink:href="#a"/></defs><path style="line-height:normal;text-indent:0;text-align:start;text-decoration-line:none;text-decoration-style:solid;text-decoration-color:#000;text-transform:none;block-progression:tb;isolation:auto;mix-blend-mode:normal" fill="url(#b)" fill-rule="evenodd" d="M 4.4921875 2 A 0.50005 0.50005 0 0 0 4 2.5078125 L 4 53.699219 L 4 59 L 2.5078125 59 A 0.50004997 0.50004997 0 1 0 2.5078125 60 L 4 60 L 4 61.494141 A 0.50005 0.50005 0 1 0 5 61.494141 L 5 60 L 7.5410156 60 L 61.492188 60 A 0.50004997 0.50004997 0 1 0 61.492188 59 L 8.5820312 59 L 21.228516 43.195312 L 27.558594 47.412109 C 29.086022 48.430109 31.153465 48.091019 32.273438 46.636719 L 40.214844 36.3125 L 44.464844 39.349609 C 45.983259 40.434409 48.099197 40.131562 49.251953 38.664062 L 57.707031 27.900391 L 60.660156 30.853516 A 0.50005 0.50005 0 0 0 61.513672 30.5 L 61.513672 19.5 A 0.50005 0.50005 0 0 0 61.013672 19 L 57.957031 19 L 58.029297 19.009766 C 57.80609 18.976766 57.580857 18.965563 57.355469 18.976562 L 57.355469 18.972656 C 57.259099 18.972656 57.164015 18.986047 57.068359 18.998047 L 50.013672 18.998047 A 0.50005 0.50005 0 0 0 49.660156 19.851562 L 52.720703 22.914062 L 45.814453 31.708984 L 41.535156 28.652344 C 40.006078 27.560344 37.872746 27.876334 36.726562 29.365234 L 28.720703 39.773438 L 22.441406 35.585938 C 20.934477 34.582437 18.898567 34.8987 17.767578 36.3125 L 5 52.275391 L 5 2.5078125 A 0.50005 0.50005 0 0 0 4.4921875 2 z M 57.402344 19.970703 C 57.563341 19.960703 57.725326 19.969141 57.884766 19.994141 A 0.50005 0.50005 0 0 0 57.957031 19.994141 L 60.513672 19.994141 L 60.513672 29.287109 L 58.015625 26.789062 A 0.50005 0.50005 0 0 0 57.269531 26.833984 L 48.466797 38.039062 C 47.637942 39.094263 46.138646 39.309297 45.046875 38.529297 L 40.404297 35.212891 A 0.50005 0.50005 0 0 0 39.716797 35.314453 L 31.480469 46.019531 C 30.675482 47.064831 29.211129 47.305919 28.113281 46.574219 L 21.402344 42.101562 A 0.50005 0.50005 0 0 0 20.734375 42.205078 L 7.3007812 58.994141 L 5 58.994141 L 5 53.869141 L 18.548828 36.933594 C 19.361496 35.917694 20.80392 35.694916 21.886719 36.416016 L 28.554688 40.861328 A 0.50005 0.50005 0 0 0 29.228516 40.751953 L 37.519531 29.974609 C 38.34379 28.903909 39.853513 28.679544 40.953125 29.464844 L 45.621094 32.798828 A 0.50005 0.50005 0 0 0 46.304688 32.701172 L 53.78125 23.181641 A 0.50005 0.50005 0 0 0 53.742188 22.517578 L 51.220703 19.996094 L 57.080078 19.996094 A 0.50005 0.50005 0 0 0 57.152344 19.996094 C 57.234894 19.984094 57.318983 19.974703 57.402344 19.970703 z " color="#000" font-family="sans-serif" font-weight="400" overflow="visible" white-space="normal"/></svg>